<svg width="13" height="12" viewBox="0 0 13 12" fill="none" xmlns="http://www.w3.org/2000/svg">
<path d="M0.21875 4.76823C0.21875 2.1899 2.30942 0.101562 4.88833 0.101562H7.43517C10.0543 0.101562 12.1771 2.2249 12.1771 4.84406C12.1771 6.57073 11.2397 8.1574 9.72942 8.99156L5.03125 11.5932V9.44073H4.99217C2.373 9.49906 0.21875 7.39323 0.21875 4.76823ZM4.88833 1.26823C2.95342 1.26823 1.38542 2.8374 1.38542 4.76823C1.38542 6.73406 3.00125 8.3149 4.96592 8.27406L5.17067 8.26823H6.19792V9.60989L9.16533 7.97073C10.3034 7.34073 11.0104 6.1449 11.0104 4.84406C11.0104 2.86656 9.40975 1.26823 7.43517 1.26823H4.88833Z" fill="#2B2829"/>
</svg>
